<svg xmlns="http://www.w3.org/2000/svg" xmlns:xlink="http://www.w3.org/1999/xlink" width="512" zoomAndPan="magnify" viewBox="0 0 384 383.999986" height="512" preserveAspectRatio="xMidYMid meet" version="1.0"><defs><clipPath id="aee36c8b26"><path d="M 0 85.199219 L 384 85.199219 L 384 102 L 0 102 Z M 0 85.199219 " clip-rule="nonzero"/></clipPath><clipPath id="e1ddab9ced"><path d="M 0 91.199219 L 0 292.800781 C 0 296.113281 2.6875 298.800781 6 298.800781 L 378 298.800781 C 381.3125 298.800781 384 296.113281 384 292.800781 L 384 91.199219 C 384 87.886719 381.3125 85.199219 378 85.199219 L 6 85.199219 C 2.6875 85.199219 0 87.886719 0 91.199219 Z M 0 91.199219 " clip-rule="nonzero"/></clipPath><clipPath id="0e88427d47"><path d="M 0 101 L 384 101 L 384 119 L 0 119 Z M 0 101 " clip-rule="nonzero"/></clipPath><clipPath id="3c0ed6b841"><path d="M 0 91.199219 L 0 292.800781 C 0 296.113281 2.6875 298.800781 6 298.800781 L 378 298.800781 C 381.3125 298.800781 384 296.113281 384 292.800781 L 384 91.199219 C 384 87.886719 381.3125 85.199219 378 85.199219 L 6 85.199219 C 2.6875 85.199219 0 87.886719 0 91.199219 Z M 0 91.199219 " clip-rule="nonzero"/></clipPath><clipPath id="7b2c00cc5a"><path d="M 0 118 L 384 118 L 384 135 L 0 135 Z M 0 118 " clip-rule="nonzero"/></clipPath><clipPath id="6bbb29aa03"><path d="M 0 91.199219 L 0 292.800781 C 0 296.113281 2.6875 298.800781 6 298.800781 L 378 298.800781 C 381.3125 298.800781 384 296.113281 384 292.800781 L 384 91.199219 C 384 87.886719 381.3125 85.199219 378 85.199219 L 6 85.199219 C 2.6875 85.199219 0 87.886719 0 91.199219 Z M 0 91.199219 " clip-rule="nonzero"/></clipPath><clipPath id="28a6dda10c"><path d="M 0 134 L 384 134 L 384 152 L 0 152 Z M 0 134 " clip-rule="nonzero"/></clipPath><clipPath id="cdf451888e"><path d="M 0 91.199219 L 0 292.800781 C 0 296.113281 2.6875 298.800781 6 298.800781 L 378 298.800781 C 381.3125 298.800781 384 296.113281 384 292.800781 L 384 91.199219 C 384 87.886719 381.3125 85.199219 378 85.199219 L 6 85.199219 C 2.6875 85.199219 0 87.886719 0 91.199219 Z M 0 91.199219 " clip-rule="nonzero"/></clipPath><clipPath id="f76048d00d"><path d="M 0 150 L 384 150 L 384 168 L 0 168 Z M 0 150 " clip-rule="nonzero"/></clipPath><clipPath id="9f7081a050"><path d="M 0 91.199219 L 0 292.800781 C 0 296.113281 2.6875 298.800781 6 298.800781 L 378 298.800781 C 381.3125 298.800781 384 296.113281 384 292.800781 L 384 91.199219 C 384 87.886719 381.3125 85.199219 378 85.199219 L 6 85.199219 C 2.6875 85.199219 0 87.886719 0 91.199219 Z M 0 91.199219 " clip-rule="nonzero"/></clipPath><clipPath id="eb1c683a83"><path d="M 0 167 L 384 167 L 384 184 L 0 184 Z M 0 167 " clip-rule="nonzero"/></clipPath><clipPath id="903470b0e0"><path d="M 0 91.199219 L 0 292.800781 C 0 296.113281 2.6875 298.800781 6 298.800781 L 378 298.800781 C 381.3125 298.800781 384 296.113281 384 292.800781 L 384 91.199219 C 384 87.886719 381.3125 85.199219 378 85.199219 L 6 85.199219 C 2.6875 85.199219 0 87.886719 0 91.199219 Z M 0 91.199219 " clip-rule="nonzero"/></clipPath><clipPath id="a32c2d6785"><path d="M 0 183 L 384 183 L 384 201 L 0 201 Z M 0 183 " clip-rule="nonzero"/></clipPath><clipPath id="25a4bc7bd5"><path d="M 0 91.199219 L 0 292.800781 C 0 296.113281 2.6875 298.800781 6 298.800781 L 378 298.800781 C 381.3125 298.800781 384 296.113281 384 292.800781 L 384 91.199219 C 384 87.886719 381.3125 85.199219 378 85.199219 L 6 85.199219 C 2.6875 85.199219 0 87.886719 0 91.199219 Z M 0 91.199219 " clip-rule="nonzero"/></clipPath><clipPath id="fcd23e70f5"><path d="M 0 200 L 384 200 L 384 217 L 0 217 Z M 0 200 " clip-rule="nonzero"/></clipPath><clipPath id="fa3bc58a54"><path d="M 0 91.199219 L 0 292.800781 C 0 296.113281 2.6875 298.800781 6 298.800781 L 378 298.800781 C 381.3125 298.800781 384 296.113281 384 292.800781 L 384 91.199219 C 384 87.886719 381.3125 85.199219 378 85.199219 L 6 85.199219 C 2.6875 85.199219 0 87.886719 0 91.199219 Z M 0 91.199219 " clip-rule="nonzero"/></clipPath><clipPath id="92748645a1"><path d="M 0 216 L 384 216 L 384 234 L 0 234 Z M 0 216 " clip-rule="nonzero"/></clipPath><clipPath id="6b53ceda80"><path d="M 0 91.199219 L 0 292.800781 C 0 296.113281 2.6875 298.800781 6 298.800781 L 378 298.800781 C 381.3125 298.800781 384 296.113281 384 292.800781 L 384 91.199219 C 384 87.886719 381.3125 85.199219 378 85.199219 L 6 85.199219 C 2.6875 85.199219 0 87.886719 0 91.199219 Z M 0 91.199219 " clip-rule="nonzero"/></clipPath><clipPath id="d5df905844"><path d="M 0 233 L 384 233 L 384 250 L 0 250 Z M 0 233 " clip-rule="nonzero"/></clipPath><clipPath id="1375458e56"><path d="M 0 91.199219 L 0 292.800781 C 0 296.113281 2.6875 298.800781 6 298.800781 L 378 298.800781 C 381.3125 298.800781 384 296.113281 384 292.800781 L 384 91.199219 C 384 87.886719 381.3125 85.199219 378 85.199219 L 6 85.199219 C 2.6875 85.199219 0 87.886719 0 91.199219 Z M 0 91.199219 " clip-rule="nonzero"/></clipPath><clipPath id="af8b781757"><path d="M 0 118 L 384 118 L 384 135 L 0 135 Z M 0 118 " clip-rule="nonzero"/></clipPath><clipPath id="0dc3a606b0"><path d="M 0 91.199219 L 0 292.800781 C 0 296.113281 2.6875 298.800781 6 298.800781 L 378 298.800781 C 381.3125 298.800781 384 296.113281 384 292.800781 L 384 91.199219 C 384 87.886719 381.3125 85.199219 378 85.199219 L 6 85.199219 C 2.6875 85.199219 0 87.886719 0 91.199219 Z M 0 91.199219 " clip-rule="nonzero"/></clipPath><clipPath id="abb4152f90"><path d="M 0 249 L 384 249 L 384 267 L 0 267 Z M 0 249 " clip-rule="nonzero"/></clipPath><clipPath id="f36c0df808"><path d="M 0 91.199219 L 0 292.800781 C 0 296.113281 2.6875 298.800781 6 298.800781 L 378 298.800781 C 381.3125 298.800781 384 296.113281 384 292.800781 L 384 91.199219 C 384 87.886719 381.3125 85.199219 378 85.199219 L 6 85.199219 C 2.6875 85.199219 0 87.886719 0 91.199219 Z M 0 91.199219 " clip-rule="nonzero"/></clipPath><clipPath id="1e60ed707b"><path d="M 0 265 L 384 265 L 384 283 L 0 283 Z M 0 265 " clip-rule="nonzero"/></clipPath><clipPath id="7e30499627"><path d="M 0 91.199219 L 0 292.800781 C 0 296.113281 2.6875 298.800781 6 298.800781 L 378 298.800781 C 381.3125 298.800781 384 296.113281 384 292.800781 L 384 91.199219 C 384 87.886719 381.3125 85.199219 378 85.199219 L 6 85.199219 C 2.6875 85.199219 0 87.886719 0 91.199219 Z M 0 91.199219 " clip-rule="nonzero"/></clipPath><clipPath id="3e613fe472"><path d="M 0 150 L 384 150 L 384 168 L 0 168 Z M 0 150 " clip-rule="nonzero"/></clipPath><clipPath id="a2781fd773"><path d="M 0 91.199219 L 0 292.800781 C 0 296.113281 2.6875 298.800781 6 298.800781 L 378 298.800781 C 381.3125 298.800781 384 296.113281 384 292.800781 L 384 91.199219 C 384 87.886719 381.3125 85.199219 378 85.199219 L 6 85.199219 C 2.6875 85.199219 0 87.886719 0 91.199219 Z M 0 91.199219 " clip-rule="nonzero"/></clipPath><clipPath id="fcebcf7bf5"><path d="M 0 282 L 384 282 L 384 298.878906 L 0 298.878906 Z M 0 282 " clip-rule="nonzero"/></clipPath><clipPath id="84e86ac63a"><path d="M 0 91.199219 L 0 292.800781 C 0 296.113281 2.6875 298.800781 6 298.800781 L 378 298.800781 C 381.3125 298.800781 384 296.113281 384 292.800781 L 384 91.199219 C 384 87.886719 381.3125 85.199219 378 85.199219 L 6 85.199219 C 2.6875 85.199219 0 87.886719 0 91.199219 Z M 0 91.199219 " clip-rule="nonzero"/></clipPath><clipPath id="22eae30aec"><path d="M 0 85.199219 L 164 85.199219 L 164 201 L 0 201 Z M 0 85.199219 " clip-rule="nonzero"/></clipPath><clipPath id="aec5c955cf"><path d="M 0 91.199219 L 0 292.800781 C 0 296.113281 2.6875 298.800781 6 298.800781 L 378 298.800781 C 381.3125 298.800781 384 296.113281 384 292.800781 L 384 91.199219 C 384 87.886719 381.3125 85.199219 378 85.199219 L 6 85.199219 C 2.6875 85.199219 0 87.886719 0 91.199219 Z M 0 91.199219 " clip-rule="nonzero"/></clipPath><clipPath id="613890a819"><path d="M 7 89 L 20 89 L 20 101 L 7 101 Z M 7 89 " clip-rule="nonzero"/></clipPath><clipPath id="95d3445aaf"><path d="M 0 91.199219 L 0 292.800781 C 0 296.113281 2.6875 298.800781 6 298.800781 L 378 298.800781 C 381.3125 298.800781 384 296.113281 384 292.800781 L 384 91.199219 C 384 87.886719 381.3125 85.199219 378 85.199219 L 6 85.199219 C 2.6875 85.199219 0 87.886719 0 91.199219 Z M 0 91.199219 " clip-rule="nonzero"/></clipPath><clipPath id="c29e7c56ce"><path d="M 34 89 L 47 89 L 47 101 L 34 101 Z M 34 89 " clip-rule="nonzero"/></clipPath><clipPath id="c72e12dd4d"><path d="M 0 91.199219 L 0 292.800781 C 0 296.113281 2.6875 298.800781 6 298.800781 L 378 298.800781 C 381.3125 298.800781 384 296.113281 384 292.800781 L 384 91.199219 C 384 87.886719 381.3125 85.199219 378 85.199219 L 6 85.199219 C 2.6875 85.199219 0 87.886719 0 91.199219 Z M 0 91.199219 " clip-rule="nonzero"/></clipPath><clipPath id="27435cf3ca"><path d="M 61 89 L 74 89 L 74 101 L 61 101 Z M 61 89 " clip-rule="nonzero"/></clipPath><clipPath id="61ebb27715"><path d="M 0 91.199219 L 0 292.800781 C 0 296.113281 2.6875 298.800781 6 298.800781 L 378 298.800781 C 381.3125 298.800781 384 296.113281 384 292.800781 L 384 91.199219 C 384 87.886719 381.3125 85.199219 378 85.199219 L 6 85.199219 C 2.6875 85.199219 0 87.886719 0 91.199219 Z M 0 91.199219 " clip-rule="nonzero"/></clipPath><clipPath id="01779267e4"><path d="M 89 89 L 102 89 L 102 101 L 89 101 Z M 89 89 " clip-rule="nonzero"/></clipPath><clipPath id="c372a705c5"><path d="M 0 91.199219 L 0 292.800781 C 0 296.113281 2.6875 298.800781 6 298.800781 L 378 298.800781 C 381.3125 298.800781 384 296.113281 384 292.800781 L 384 91.199219 C 384 87.886719 381.3125 85.199219 378 85.199219 L 6 85.199219 C 2.6875 85.199219 0 87.886719 0 91.199219 Z M 0 91.199219 " clip-rule="nonzero"/></clipPath><clipPath id="e173dda7b0"><path d="M 116 89 L 129 89 L 129 101 L 116 101 Z M 116 89 " clip-rule="nonzero"/></clipPath><clipPath id="295e1511d4"><path d="M 0 91.199219 L 0 292.800781 C 0 296.113281 2.6875 298.800781 6 298.800781 L 378 298.800781 C 381.3125 298.800781 384 296.113281 384 292.800781 L 384 91.199219 C 384 87.886719 381.3125 85.199219 378 85.199219 L 6 85.199219 C 2.6875 85.199219 0 87.886719 0 91.199219 Z M 0 91.199219 " clip-rule="nonzero"/></clipPath><clipPath id="7bfee6e4c7"><path d="M 143 89 L 156 89 L 156 101 L 143 101 Z M 143 89 " clip-rule="nonzero"/></clipPath><clipPath id="8ba1436c93"><path d="M 0 91.199219 L 0 292.800781 C 0 296.113281 2.6875 298.800781 6 298.800781 L 378 298.800781 C 381.3125 298.800781 384 296.113281 384 292.800781 L 384 91.199219 C 384 87.886719 381.3125 85.199219 378 85.199219 L 6 85.199219 C 2.6875 85.199219 0 87.886719 0 91.199219 Z M 0 91.199219 " clip-rule="nonzero"/></clipPath><clipPath id="277ece50e7"><path d="M 20 101 L 33 101 L 33 114 L 20 114 Z M 20 101 " clip-rule="nonzero"/></clipPath><clipPath id="73b40cfd89"><path d="M 0 91.199219 L 0 292.800781 C 0 296.113281 2.6875 298.800781 6 298.800781 L 378 298.800781 C 381.3125 298.800781 384 296.113281 384 292.800781 L 384 91.199219 C 384 87.886719 381.3125 85.199219 378 85.199219 L 6 85.199219 C 2.6875 85.199219 0 87.886719 0 91.199219 Z M 0 91.199219 " clip-rule="nonzero"/></clipPath><clipPath id="f33c8e05e6"><path d="M 48 101 L 61 101 L 61 114 L 48 114 Z M 48 101 " clip-rule="nonzero"/></clipPath><clipPath id="7709f4fced"><path d="M 0 91.199219 L 0 292.800781 C 0 296.113281 2.6875 298.800781 6 298.800781 L 378 298.800781 C 381.3125 298.800781 384 296.113281 384 292.800781 L 384 91.199219 C 384 87.886719 381.3125 85.199219 378 85.199219 L 6 85.199219 C 2.6875 85.199219 0 87.886719 0 91.199219 Z M 0 91.199219 " clip-rule="nonzero"/></clipPath><clipPath id="38bcd9498a"><path d="M 75 101 L 88 101 L 88 114 L 75 114 Z M 75 101 " clip-rule="nonzero"/></clipPath><clipPath id="647f890017"><path d="M 0 91.199219 L 0 292.800781 C 0 296.113281 2.6875 298.800781 6 298.800781 L 378 298.800781 C 381.3125 298.800781 384 296.113281 384 292.800781 L 384 91.199219 C 384 87.886719 381.3125 85.199219 378 85.199219 L 6 85.199219 C 2.6875 85.199219 0 87.886719 0 91.199219 Z M 0 91.199219 " clip-rule="nonzero"/></clipPath><clipPath id="4829622a8d"><path d="M 102 101 L 115 101 L 115 114 L 102 114 Z M 102 101 " clip-rule="nonzero"/></clipPath><clipPath id="d184aa50e0"><path d="M 0 91.199219 L 0 292.800781 C 0 296.113281 2.6875 298.800781 6 298.800781 L 378 298.800781 C 381.3125 298.800781 384 296.113281 384 292.800781 L 384 91.199219 C 384 87.886719 381.3125 85.199219 378 85.199219 L 6 85.199219 C 2.6875 85.199219 0 87.886719 0 91.199219 Z M 0 91.199219 " clip-rule="nonzero"/></clipPath><clipPath id="8fb070e1a0"><path d="M 130 101 L 143 101 L 143 114 L 130 114 Z M 130 101 " clip-rule="nonzero"/></clipPath><clipPath id="e0f69dc849"><path d="M 0 91.199219 L 0 292.800781 C 0 296.113281 2.6875 298.800781 6 298.800781 L 378 298.800781 C 381.3125 298.800781 384 296.113281 384 292.800781 L 384 91.199219 C 384 87.886719 381.3125 85.199219 378 85.199219 L 6 85.199219 C 2.6875 85.199219 0 87.886719 0 91.199219 Z M 0 91.199219 " clip-rule="nonzero"/></clipPath><clipPath id="bb39beaf6c"><path d="M 7 113 L 20 113 L 20 126 L 7 126 Z M 7 113 " clip-rule="nonzero"/></clipPath><clipPath id="690cbf18ab"><path d="M 0 91.199219 L 0 292.800781 C 0 296.113281 2.6875 298.800781 6 298.800781 L 378 298.800781 C 381.3125 298.800781 384 296.113281 384 292.800781 L 384 91.199219 C 384 87.886719 381.3125 85.199219 378 85.199219 L 6 85.199219 C 2.6875 85.199219 0 87.886719 0 91.199219 Z M 0 91.199219 " clip-rule="nonzero"/></clipPath><clipPath id="483483e10d"><path d="M 34 113 L 47 113 L 47 126 L 34 126 Z M 34 113 " clip-rule="nonzero"/></clipPath><clipPath id="a2be3e31d9"><path d="M 0 91.199219 L 0 292.800781 C 0 296.113281 2.6875 298.800781 6 298.800781 L 378 298.800781 C 381.3125 298.800781 384 296.113281 384 292.800781 L 384 91.199219 C 384 87.886719 381.3125 85.199219 378 85.199219 L 6 85.199219 C 2.6875 85.199219 0 87.886719 0 91.199219 Z M 0 91.199219 " clip-rule="nonzero"/></clipPath><clipPath id="5a1e2504c1"><path d="M 61 113 L 74 113 L 74 126 L 61 126 Z M 61 113 " clip-rule="nonzero"/></clipPath><clipPath id="7ffc9e32ad"><path d="M 0 91.199219 L 0 292.800781 C 0 296.113281 2.6875 298.800781 6 298.800781 L 378 298.800781 C 381.3125 298.800781 384 296.113281 384 292.800781 L 384 91.199219 C 384 87.886719 381.3125 85.199219 378 85.199219 L 6 85.199219 C 2.6875 85.199219 0 87.886719 0 91.199219 Z M 0 91.199219 " clip-rule="nonzero"/></clipPath><clipPath id="3086f101c4"><path d="M 89 113 L 102 113 L 102 126 L 89 126 Z M 89 113 " clip-rule="nonzero"/></clipPath><clipPath id="0e350685c4"><path d="M 0 91.199219 L 0 292.800781 C 0 296.113281 2.6875 298.800781 6 298.800781 L 378 298.800781 C 381.3125 298.800781 384 296.113281 384 292.800781 L 384 91.199219 C 384 87.886719 381.3125 85.199219 378 85.199219 L 6 85.199219 C 2.6875 85.199219 0 87.886719 0 91.199219 Z M 0 91.199219 " clip-rule="nonzero"/></clipPath><clipPath id="2f09eb661b"><path d="M 116 113 L 129 113 L 129 126 L 116 126 Z M 116 113 " clip-rule="nonzero"/></clipPath><clipPath id="254679e286"><path d="M 0 91.199219 L 0 292.800781 C 0 296.113281 2.6875 298.800781 6 298.800781 L 378 298.800781 C 381.3125 298.800781 384 296.113281 384 292.800781 L 384 91.199219 C 384 87.886719 381.3125 85.199219 378 85.199219 L 6 85.199219 C 2.6875 85.199219 0 87.886719 0 91.199219 Z M 0 91.199219 " clip-rule="nonzero"/></clipPath><clipPath id="e9a2119a2d"><path d="M 143 113 L 156 113 L 156 126 L 143 126 Z M 143 113 " clip-rule="nonzero"/></clipPath><clipPath id="a60483eab1"><path d="M 0 91.199219 L 0 292.800781 C 0 296.113281 2.6875 298.800781 6 298.800781 L 378 298.800781 C 381.3125 298.800781 384 296.113281 384 292.800781 L 384 91.199219 C 384 87.886719 381.3125 85.199219 378 85.199219 L 6 85.199219 C 2.6875 85.199219 0 87.886719 0 91.199219 Z M 0 91.199219 " clip-rule="nonzero"/></clipPath><clipPath id="2a6599d723"><path d="M 20 126 L 33 126 L 33 138 L 20 138 Z M 20 126 " clip-rule="nonzero"/></clipPath><clipPath id="cdbea36abd"><path d="M 0 91.199219 L 0 292.800781 C 0 296.113281 2.6875 298.800781 6 298.800781 L 378 298.800781 C 381.3125 298.800781 384 296.113281 384 292.800781 L 384 91.199219 C 384 87.886719 381.3125 85.199219 378 85.199219 L 6 85.199219 C 2.6875 85.199219 0 87.886719 0 91.199219 Z M 0 91.199219 " clip-rule="nonzero"/></clipPath><clipPath id="99a369d962"><path d="M 48 126 L 61 126 L 61 138 L 48 138 Z M 48 126 " clip-rule="nonzero"/></clipPath><clipPath id="8028fc3685"><path d="M 0 91.199219 L 0 292.800781 C 0 296.113281 2.6875 298.800781 6 298.800781 L 378 298.800781 C 381.3125 298.800781 384 296.113281 384 292.800781 L 384 91.199219 C 384 87.886719 381.3125 85.199219 378 85.199219 L 6 85.199219 C 2.6875 85.199219 0 87.886719 0 91.199219 Z M 0 91.199219 " clip-rule="nonzero"/></clipPath><clipPath id="fd1611e076"><path d="M 75 126 L 88 126 L 88 138 L 75 138 Z M 75 126 " clip-rule="nonzero"/></clipPath><clipPath id="dd70375ee4"><path d="M 0 91.199219 L 0 292.800781 C 0 296.113281 2.6875 298.800781 6 298.800781 L 378 298.800781 C 381.3125 298.800781 384 296.113281 384 292.800781 L 384 91.199219 C 384 87.886719 381.3125 85.199219 378 85.199219 L 6 85.199219 C 2.6875 85.199219 0 87.886719 0 91.199219 Z M 0 91.199219 " clip-rule="nonzero"/></clipPath><clipPath id="0899c4d321"><path d="M 102 126 L 115 126 L 115 138 L 102 138 Z M 102 126 " clip-rule="nonzero"/></clipPath><clipPath id="678a177a08"><path d="M 0 91.199219 L 0 292.800781 C 0 296.113281 2.6875 298.800781 6 298.800781 L 378 298.800781 C 381.3125 298.800781 384 296.113281 384 292.800781 L 384 91.199219 C 384 87.886719 381.3125 85.199219 378 85.199219 L 6 85.199219 C 2.6875 85.199219 0 87.886719 0 91.199219 Z M 0 91.199219 " clip-rule="nonzero"/></clipPath><clipPath id="6b0176bcd0"><path d="M 130 126 L 143 126 L 143 138 L 130 138 Z M 130 126 " clip-rule="nonzero"/></clipPath><clipPath id="9707e9213b"><path d="M 0 91.199219 L 0 292.800781 C 0 296.113281 2.6875 298.800781 6 298.800781 L 378 298.800781 C 381.3125 298.800781 384 296.113281 384 292.800781 L 384 91.199219 C 384 87.886719 381.3125 85.199219 378 85.199219 L 6 85.199219 C 2.6875 85.199219 0 87.886719 0 91.199219 Z M 0 91.199219 " clip-rule="nonzero"/></clipPath><clipPath id="aa82fe0232"><path d="M 7 137 L 20 137 L 20 149 L 7 149 Z M 7 137 " clip-rule="nonzero"/></clipPath><clipPath id="ce58314331"><path d="M 0 91.199219 L 0 292.800781 C 0 296.113281 2.6875 298.800781 6 298.800781 L 378 298.800781 C 381.3125 298.800781 384 296.113281 384 292.800781 L 384 91.199219 C 384 87.886719 381.3125 85.199219 378 85.199219 L 6 85.199219 C 2.6875 85.199219 0 87.886719 0 91.199219 Z M 0 91.199219 " clip-rule="nonzero"/></clipPath><clipPath id="54b49d8f5e"><path d="M 34 137 L 47 137 L 47 149 L 34 149 Z M 34 137 " clip-rule="nonzero"/></clipPath><clipPath id="f90b29d325"><path d="M 0 91.199219 L 0 292.800781 C 0 296.113281 2.6875 298.800781 6 298.800781 L 378 298.800781 C 381.3125 298.800781 384 296.113281 384 292.800781 L 384 91.199219 C 384 87.886719 381.3125 85.199219 378 85.199219 L 6 85.199219 C 2.6875 85.199219 0 87.886719 0 91.199219 Z M 0 91.199219 " clip-rule="nonzero"/></clipPath><clipPath id="d9748b27e6"><path d="M 61 137 L 74 137 L 74 149 L 61 149 Z M 61 137 " clip-rule="nonzero"/></clipPath><clipPath id="d822c102c8"><path d="M 0 91.199219 L 0 292.800781 C 0 296.113281 2.6875 298.800781 6 298.800781 L 378 298.800781 C 381.3125 298.800781 384 296.113281 384 292.800781 L 384 91.199219 C 384 87.886719 381.3125 85.199219 378 85.199219 L 6 85.199219 C 2.6875 85.199219 0 87.886719 0 91.199219 Z M 0 91.199219 " clip-rule="nonzero"/></clipPath><clipPath id="9d862af995"><path d="M 89 137 L 102 137 L 102 149 L 89 149 Z M 89 137 " clip-rule="nonzero"/></clipPath><clipPath id="5450b8c7cf"><path d="M 0 91.199219 L 0 292.800781 C 0 296.113281 2.6875 298.800781 6 298.800781 L 378 298.800781 C 381.3125 298.800781 384 296.113281 384 292.800781 L 384 91.199219 C 384 87.886719 381.3125 85.199219 378 85.199219 L 6 85.199219 C 2.6875 85.199219 0 87.886719 0 91.199219 Z M 0 91.199219 " clip-rule="nonzero"/></clipPath><clipPath id="e558d736ac"><path d="M 116 137 L 129 137 L 129 149 L 116 149 Z M 116 137 " clip-rule="nonzero"/></clipPath><clipPath id="40fce5dcda"><path d="M 0 91.199219 L 0 292.800781 C 0 296.113281 2.6875 298.800781 6 298.800781 L 378 298.800781 C 381.3125 298.800781 384 296.113281 384 292.800781 L 384 91.199219 C 384 87.886719 381.3125 85.199219 378 85.199219 L 6 85.199219 C 2.6875 85.199219 0 87.886719 0 91.199219 Z M 0 91.199219 " clip-rule="nonzero"/></clipPath><clipPath id="ec74499714"><path d="M 143 137 L 156 137 L 156 149 L 143 149 Z M 143 137 " clip-rule="nonzero"/></clipPath><clipPath id="983b72f48c"><path d="M 0 91.199219 L 0 292.800781 C 0 296.113281 2.6875 298.800781 6 298.800781 L 378 298.800781 C 381.3125 298.800781 384 296.113281 384 292.800781 L 384 91.199219 C 384 87.886719 381.3125 85.199219 378 85.199219 L 6 85.199219 C 2.6875 85.199219 0 87.886719 0 91.199219 Z M 0 91.199219 " clip-rule="nonzero"/></clipPath><clipPath id="bb5e7a58b8"><path d="M 20 149 L 33 149 L 33 162 L 20 162 Z M 20 149 " clip-rule="nonzero"/></clipPath><clipPath id="7c3e965f98"><path d="M 0 91.199219 L 0 292.800781 C 0 296.113281 2.6875 298.800781 6 298.800781 L 378 298.800781 C 381.3125 298.800781 384 296.113281 384 292.800781 L 384 91.199219 C 384 87.886719 381.3125 85.199219 378 85.199219 L 6 85.199219 C 2.6875 85.199219 0 87.886719 0 91.199219 Z M 0 91.199219 " clip-rule="nonzero"/></clipPath><clipPath id="0f57376cac"><path d="M 48 149 L 61 149 L 61 162 L 48 162 Z M 48 149 " clip-rule="nonzero"/></clipPath><clipPath id="7e015bb665"><path d="M 0 91.199219 L 0 292.800781 C 0 296.113281 2.6875 298.800781 6 298.800781 L 378 298.800781 C 381.3125 298.800781 384 296.113281 384 292.800781 L 384 91.199219 C 384 87.886719 381.3125 85.199219 378 85.199219 L 6 85.199219 C 2.6875 85.199219 0 87.886719 0 91.199219 Z M 0 91.199219 " clip-rule="nonzero"/></clipPath><clipPath id="8cf098ca88"><path d="M 75 149 L 88 149 L 88 162 L 75 162 Z M 75 149 " clip-rule="nonzero"/></clipPath><clipPath id="a9fcfc2288"><path d="M 0 91.199219 L 0 292.800781 C 0 296.113281 2.6875 298.800781 6 298.800781 L 378 298.800781 C 381.3125 298.800781 384 296.113281 384 292.800781 L 384 91.199219 C 384 87.886719 381.3125 85.199219 378 85.199219 L 6 85.199219 C 2.6875 85.199219 0 87.886719 0 91.199219 Z M 0 91.199219 " clip-rule="nonzero"/></clipPath><clipPath id="531f867332"><path d="M 102 149 L 115 149 L 115 162 L 102 162 Z M 102 149 " clip-rule="nonzero"/></clipPath><clipPath id="b13e547c38"><path d="M 0 91.199219 L 0 292.800781 C 0 296.113281 2.6875 298.800781 6 298.800781 L 378 298.800781 C 381.3125 298.800781 384 296.113281 384 292.800781 L 384 91.199219 C 384 87.886719 381.3125 85.199219 378 85.199219 L 6 85.199219 C 2.6875 85.199219 0 87.886719 0 91.199219 Z M 0 91.199219 " clip-rule="nonzero"/></clipPath><clipPath id="b55e74db1d"><path d="M 130 149 L 143 149 L 143 162 L 130 162 Z M 130 149 " clip-rule="nonzero"/></clipPath><clipPath id="45922fab2e"><path d="M 0 91.199219 L 0 292.800781 C 0 296.113281 2.6875 298.800781 6 298.800781 L 378 298.800781 C 381.3125 298.800781 384 296.113281 384 292.800781 L 384 91.199219 C 384 87.886719 381.3125 85.199219 378 85.199219 L 6 85.199219 C 2.6875 85.199219 0 87.886719 0 91.199219 Z M 0 91.199219 " clip-rule="nonzero"/></clipPath><clipPath id="18567ef4b5"><path d="M 7 160 L 20 160 L 20 173 L 7 173 Z M 7 160 " clip-rule="nonzero"/></clipPath><clipPath id="3f64af7051"><path d="M 0 91.199219 L 0 292.800781 C 0 296.113281 2.6875 298.800781 6 298.800781 L 378 298.800781 C 381.3125 298.800781 384 296.113281 384 292.800781 L 384 91.199219 C 384 87.886719 381.3125 85.199219 378 85.199219 L 6 85.199219 C 2.6875 85.199219 0 87.886719 0 91.199219 Z M 0 91.199219 " clip-rule="nonzero"/></clipPath><clipPath id="fc377c7910"><path d="M 34 160 L 47 160 L 47 173 L 34 173 Z M 34 160 " clip-rule="nonzero"/></clipPath><clipPath id="f970225a0d"><path d="M 0 91.199219 L 0 292.800781 C 0 296.113281 2.6875 298.800781 6 298.800781 L 378 298.800781 C 381.3125 298.800781 384 296.113281 384 292.800781 L 384 91.199219 C 384 87.886719 381.3125 85.199219 378 85.199219 L 6 85.199219 C 2.6875 85.199219 0 87.886719 0 91.199219 Z M 0 91.199219 " clip-rule="nonzero"/></clipPath><clipPath id="8d2aa69894"><path d="M 61 160 L 74 160 L 74 173 L 61 173 Z M 61 160 " clip-rule="nonzero"/></clipPath><clipPath id="9a39cd5485"><path d="M 0 91.199219 L 0 292.800781 C 0 296.113281 2.6875 298.800781 6 298.800781 L 378 298.800781 C 381.3125 298.800781 384 296.113281 384 292.800781 L 384 91.199219 C 384 87.886719 381.3125 85.199219 378 85.199219 L 6 85.199219 C 2.6875 85.199219 0 87.886719 0 91.199219 Z M 0 91.199219 " clip-rule="nonzero"/></clipPath><clipPath id="13014f0755"><path d="M 89 160 L 102 160 L 102 173 L 89 173 Z M 89 160 " clip-rule="nonzero"/></clipPath><clipPath id="6c3b74c631"><path d="M 0 91.199219 L 0 292.800781 C 0 296.113281 2.6875 298.800781 6 298.800781 L 378 298.800781 C 381.3125 298.800781 384 296.113281 384 292.800781 L 384 91.199219 C 384 87.886719 381.3125 85.199219 378 85.199219 L 6 85.199219 C 2.6875 85.199219 0 87.886719 0 91.199219 Z M 0 91.199219 " clip-rule="nonzero"/></clipPath><clipPath id="44f1fa0cff"><path d="M 116 160 L 129 160 L 129 173 L 116 173 Z M 116 160 " clip-rule="nonzero"/></clipPath><clipPath id="c7327c62d4"><path d="M 0 91.199219 L 0 292.800781 C 0 296.113281 2.6875 298.800781 6 298.800781 L 378 298.800781 C 381.3125 298.800781 384 296.113281 384 292.800781 L 384 91.199219 C 384 87.886719 381.3125 85.199219 378 85.199219 L 6 85.199219 C 2.6875 85.199219 0 87.886719 0 91.199219 Z M 0 91.199219 " clip-rule="nonzero"/></clipPath><clipPath id="ba43c42f23"><path d="M 143 160 L 156 160 L 156 173 L 143 173 Z M 143 160 " clip-rule="nonzero"/></clipPath><clipPath id="16fa8b71e7"><path d="M 0 91.199219 L 0 292.800781 C 0 296.113281 2.6875 298.800781 6 298.800781 L 378 298.800781 C 381.3125 298.800781 384 296.113281 384 292.800781 L 384 91.199219 C 384 87.886719 381.3125 85.199219 378 85.199219 L 6 85.199219 C 2.6875 85.199219 0 87.886719 0 91.199219 Z M 0 91.199219 " clip-rule="nonzero"/></clipPath><clipPath id="8ac700fafb"><path d="M 20 172 L 33 172 L 33 185 L 20 185 Z M 20 172 " clip-rule="nonzero"/></clipPath><clipPath id="391e85de35"><path d="M 0 91.199219 L 0 292.800781 C 0 296.113281 2.6875 298.800781 6 298.800781 L 378 298.800781 C 381.3125 298.800781 384 296.113281 384 292.800781 L 384 91.199219 C 384 87.886719 381.3125 85.199219 378 85.199219 L 6 85.199219 C 2.6875 85.199219 0 87.886719 0 91.199219 Z M 0 91.199219 " clip-rule="nonzero"/></clipPath><clipPath id="bdeddd4968"><path d="M 48 172 L 61 172 L 61 185 L 48 185 Z M 48 172 " clip-rule="nonzero"/></clipPath><clipPath id="9a4fedb7ec"><path d="M 0 91.199219 L 0 292.800781 C 0 296.113281 2.6875 298.800781 6 298.800781 L 378 298.800781 C 381.3125 298.800781 384 296.113281 384 292.800781 L 384 91.199219 C 384 87.886719 381.3125 85.199219 378 85.199219 L 6 85.199219 C 2.6875 85.199219 0 87.886719 0 91.199219 Z M 0 91.199219 " clip-rule="nonzero"/></clipPath><clipPath id="0489065f3a"><path d="M 75 172 L 88 172 L 88 185 L 75 185 Z M 75 172 " clip-rule="nonzero"/></clipPath><clipPath id="24c138a055"><path d="M 0 91.199219 L 0 292.800781 C 0 296.113281 2.6875 298.800781 6 298.800781 L 378 298.800781 C 381.3125 298.800781 384 296.113281 384 292.800781 L 384 91.199219 C 384 87.886719 381.3125 85.199219 378 85.199219 L 6 85.199219 C 2.6875 85.199219 0 87.886719 0 91.199219 Z M 0 91.199219 " clip-rule="nonzero"/></clipPath><clipPath id="2d39361674"><path d="M 102 172 L 115 172 L 115 185 L 102 185 Z M 102 172 " clip-rule="nonzero"/></clipPath><clipPath id="0a576a091e"><path d="M 0 91.199219 L 0 292.800781 C 0 296.113281 2.6875 298.800781 6 298.800781 L 378 298.800781 C 381.3125 298.800781 384 296.113281 384 292.800781 L 384 91.199219 C 384 87.886719 381.3125 85.199219 378 85.199219 L 6 85.199219 C 2.6875 85.199219 0 87.886719 0 91.199219 Z M 0 91.199219 " clip-rule="nonzero"/></clipPath><clipPath id="ba9eb46ffd"><path d="M 130 172 L 143 172 L 143 185 L 130 185 Z M 130 172 " clip-rule="nonzero"/></clipPath><clipPath id="f51ddc19c7"><path d="M 0 91.199219 L 0 292.800781 C 0 296.113281 2.6875 298.800781 6 298.800781 L 378 298.800781 C 381.3125 298.800781 384 296.113281 384 292.800781 L 384 91.199219 C 384 87.886719 381.3125 85.199219 378 85.199219 L 6 85.199219 C 2.6875 85.199219 0 87.886719 0 91.199219 Z M 0 91.199219 " clip-rule="nonzero"/></clipPath><clipPath id="27c21fe002"><path d="M 7 183 L 20 183 L 20 196 L 7 196 Z M 7 183 " clip-rule="nonzero"/></clipPath><clipPath id="066dee0178"><path d="M 0 91.199219 L 0 292.800781 C 0 296.113281 2.6875 298.800781 6 298.800781 L 378 298.800781 C 381.3125 298.800781 384 296.113281 384 292.800781 L 384 91.199219 C 384 87.886719 381.3125 85.199219 378 85.199219 L 6 85.199219 C 2.6875 85.199219 0 87.886719 0 91.199219 Z M 0 91.199219 " clip-rule="nonzero"/></clipPath><clipPath id="4d78c20165"><path d="M 34 183 L 47 183 L 47 196 L 34 196 Z M 34 183 " clip-rule="nonzero"/></clipPath><clipPath id="72e523c87b"><path d="M 0 91.199219 L 0 292.800781 C 0 296.113281 2.6875 298.800781 6 298.800781 L 378 298.800781 C 381.3125 298.800781 384 296.113281 384 292.800781 L 384 91.199219 C 384 87.886719 381.3125 85.199219 378 85.199219 L 6 85.199219 C 2.6875 85.199219 0 87.886719 0 91.199219 Z M 0 91.199219 " clip-rule="nonzero"/></clipPath><clipPath id="8bfd6b480a"><path d="M 61 183 L 74 183 L 74 196 L 61 196 Z M 61 183 " clip-rule="nonzero"/></clipPath><clipPath id="9a30e08ad8"><path d="M 0 91.199219 L 0 292.800781 C 0 296.113281 2.6875 298.800781 6 298.800781 L 378 298.800781 C 381.3125 298.800781 384 296.113281 384 292.800781 L 384 91.199219 C 384 87.886719 381.3125 85.199219 378 85.199219 L 6 85.199219 C 2.6875 85.199219 0 87.886719 0 91.199219 Z M 0 91.199219 " clip-rule="nonzero"/></clipPath><clipPath id="68844ca81f"><path d="M 89 183 L 102 183 L 102 196 L 89 196 Z M 89 183 " clip-rule="nonzero"/></clipPath><clipPath id="1e0ec13f74"><path d="M 0 91.199219 L 0 292.800781 C 0 296.113281 2.6875 298.800781 6 298.800781 L 378 298.800781 C 381.3125 298.800781 384 296.113281 384 292.800781 L 384 91.199219 C 384 87.886719 381.3125 85.199219 378 85.199219 L 6 85.199219 C 2.6875 85.199219 0 87.886719 0 91.199219 Z M 0 91.199219 " clip-rule="nonzero"/></clipPath><clipPath id="83fc2cd5e8"><path d="M 116 183 L 129 183 L 129 196 L 116 196 Z M 116 183 " clip-rule="nonzero"/></clipPath><clipPath id="1a847ff3d3"><path d="M 0 91.199219 L 0 292.800781 C 0 296.113281 2.6875 298.800781 6 298.800781 L 378 298.800781 C 381.3125 298.800781 384 296.113281 384 292.800781 L 384 91.199219 C 384 87.886719 381.3125 85.199219 378 85.199219 L 6 85.199219 C 2.6875 85.199219 0 87.886719 0 91.199219 Z M 0 91.199219 " clip-rule="nonzero"/></clipPath><clipPath id="92d44a5089"><path d="M 143 183 L 156 183 L 156 196 L 143 196 Z M 143 183 " clip-rule="nonzero"/></clipPath><clipPath id="723a2fe740"><path d="M 0 91.199219 L 0 292.800781 C 0 296.113281 2.6875 298.800781 6 298.800781 L 378 298.800781 C 381.3125 298.800781 384 296.113281 384 292.800781 L 384 91.199219 C 384 87.886719 381.3125 85.199219 378 85.199219 L 6 85.199219 C 2.6875 85.199219 0 87.886719 0 91.199219 Z M 0 91.199219 " clip-rule="nonzero"/></clipPath></defs><g clip-path="url(#aee36c8b26)"><g clip-path="url(#e1ddab9ced)"><path fill="#c70000" d="M 384 101.847656 L 0 101.847656 L 0 85.316406 L 384 85.316406 L 384 101.847656 " fill-opacity="1" fill-rule="nonzero"/></g></g><g clip-path="url(#0e88427d47)"><g clip-path="url(#3c0ed6b841)"><path fill="#f2f7f5" d="M 384 118.265625 L 0 118.265625 L 0 101.738281 L 384 101.738281 L 384 118.265625 " fill-opacity="1" fill-rule="nonzero"/></g></g><g clip-path="url(#7b2c00cc5a)"><g clip-path="url(#6bbb29aa03)"><path fill="#c70000" d="M 384 134.6875 L 0 134.6875 L 0 118.15625 L 384 118.15625 L 384 134.6875 " fill-opacity="1" fill-rule="nonzero"/></g></g><g clip-path="url(#28a6dda10c)"><g clip-path="url(#cdf451888e)"><path fill="#f2f7f5" d="M 384 151.101562 L 0 151.101562 L 0 134.574219 L 384 134.574219 L 384 151.101562 " fill-opacity="1" fill-rule="nonzero"/></g></g><g clip-path="url(#f76048d00d)"><g clip-path="url(#9f7081a050)"><path fill="#c70000" d="M 384 167.523438 L 0 167.523438 L 0 150.992188 L 384 150.992188 L 384 167.523438 " fill-opacity="1" fill-rule="nonzero"/></g></g><g clip-path="url(#eb1c683a83)"><g clip-path="url(#903470b0e0)"><path fill="#f2f7f5" d="M 384 183.941406 L 0 183.941406 L 0 167.414062 L 384 167.414062 L 384 183.941406 " fill-opacity="1" fill-rule="nonzero"/></g></g><g clip-path="url(#a32c2d6785)"><g clip-path="url(#25a4bc7bd5)"><path fill="#c70000" d="M 384 200.363281 L 0 200.363281 L 0 183.832031 L 384 183.832031 L 384 200.363281 " fill-opacity="1" fill-rule="nonzero"/></g></g><g clip-path="url(#fcd23e70f5)"><g clip-path="url(#fa3bc58a54)"><path fill="#f2f7f5" d="M 384 216.78125 L 0 216.78125 L 0 200.246094 L 384 200.246094 L 384 216.78125 " fill-opacity="1" fill-rule="nonzero"/></g></g><g clip-path="url(#92748645a1)"><g clip-path="url(#6b53ceda80)"><path fill="#c70000" d="M 384 233.203125 L 0 233.203125 L 0 216.667969 L 384 216.667969 L 384 233.203125 " fill-opacity="1" fill-rule="nonzero"/></g></g><g clip-path="url(#d5df905844)"><g clip-path="url(#1375458e56)"><path fill="#f2f7f5" d="M 384 249.617188 L 0 249.617188 L 0 233.085938 L 384 233.085938 L 384 249.617188 " fill-opacity="1" fill-rule="nonzero"/></g></g><g clip-path="url(#af8b781757)"><g clip-path="url(#0dc3a606b0)"><path fill="#c70000" d="M 384 134.6875 L 0 134.6875 L 0 118.15625 L 384 118.15625 L 384 134.6875 " fill-opacity="1" fill-rule="nonzero"/></g></g><g clip-path="url(#abb4152f90)"><g clip-path="url(#f36c0df808)"><path fill="#c70000" d="M 384 266.039062 L 0 266.039062 L 0 249.507812 L 384 249.507812 L 384 266.039062 " fill-opacity="1" fill-rule="nonzero"/></g></g><g clip-path="url(#1e60ed707b)"><g clip-path="url(#7e30499627)"><path fill="#f2f7f5" d="M 384 282.457031 L 0 282.457031 L 0 265.929688 L 384 265.929688 L 384 282.457031 " fill-opacity="1" fill-rule="nonzero"/></g></g><g clip-path="url(#3e613fe472)"><g clip-path="url(#a2781fd773)"><path fill="#c70000" d="M 384 167.523438 L 0 167.523438 L 0 150.992188 L 384 150.992188 L 384 167.523438 " fill-opacity="1" fill-rule="nonzero"/></g></g><g clip-path="url(#fcebcf7bf5)"><g clip-path="url(#84e86ac63a)"><path fill="#c70000" d="M 384 298.878906 L 0 298.878906 L 0 282.347656 L 384 282.347656 L 384 298.878906 " fill-opacity="1" fill-rule="nonzero"/></g></g><g clip-path="url(#22eae30aec)"><g clip-path="url(#aec5c955cf)"><path fill="#00365c" d="M 163.691406 200.347656 L 0 200.347656 L 0 85.316406 L 163.691406 85.316406 L 163.691406 200.347656 " fill-opacity="1" fill-rule="nonzero"/></g></g><g clip-path="url(#613890a819)"><g clip-path="url(#95d3445aaf)"><path fill="#f2f7f5" d="M 13.226562 89.414062 L 14.65625 93.785156 L 19.253906 93.796875 L 15.546875 96.515625 L 16.949219 100.898438 L 13.226562 98.199219 L 9.496094 100.898438 L 10.90625 96.515625 L 7.191406 93.796875 L 11.789062 93.785156 L 13.226562 89.414062 " fill-opacity="1" fill-rule="nonzero"/></g></g><g clip-path="url(#c29e7c56ce)"><g clip-path="url(#c72e12dd4d)"><path fill="#f2f7f5" d="M 40.546875 89.414062 L 41.980469 93.785156 L 46.578125 93.796875 L 42.863281 96.515625 L 44.273438 100.898438 L 40.546875 98.199219 L 36.820312 100.898438 L 38.226562 96.515625 L 34.515625 93.796875 L 39.109375 93.785156 L 40.546875 89.414062 " fill-opacity="1" fill-rule="nonzero"/></g></g><g clip-path="url(#27435cf3ca)"><g clip-path="url(#61ebb27715)"><path fill="#f2f7f5" d="M 67.871094 89.414062 L 69.304688 93.785156 L 73.898438 93.796875 L 70.191406 96.515625 L 71.59375 100.898438 L 67.871094 98.199219 L 64.140625 100.898438 L 65.550781 96.515625 L 61.835938 93.796875 L 66.433594 93.785156 L 67.871094 89.414062 " fill-opacity="1" fill-rule="nonzero"/></g></g><g clip-path="url(#01779267e4)"><g clip-path="url(#c372a705c5)"><path fill="#f2f7f5" d="M 95.195312 89.414062 L 96.625 93.785156 L 101.226562 93.796875 L 97.511719 96.515625 L 98.921875 100.898438 L 95.195312 98.199219 L 91.464844 100.898438 L 92.875 96.515625 L 89.160156 93.796875 L 93.761719 93.785156 L 95.195312 89.414062 " fill-opacity="1" fill-rule="nonzero"/></g></g><g clip-path="url(#e173dda7b0)"><g clip-path="url(#295e1511d4)"><path fill="#f2f7f5" d="M 122.515625 89.414062 L 123.949219 93.785156 L 128.550781 93.796875 L 124.835938 96.515625 L 126.246094 100.898438 L 122.515625 98.199219 L 118.789062 100.898438 L 120.195312 96.515625 L 116.484375 93.796875 L 121.078125 93.785156 L 122.515625 89.414062 " fill-opacity="1" fill-rule="nonzero"/></g></g><g clip-path="url(#7bfee6e4c7)"><g clip-path="url(#8ba1436c93)"><path fill="#f2f7f5" d="M 149.839844 89.414062 L 151.273438 93.785156 L 155.871094 93.796875 L 152.160156 96.515625 L 153.570312 100.898438 L 149.839844 98.199219 L 146.113281 100.898438 L 147.519531 96.515625 L 143.808594 93.796875 L 148.40625 93.785156 L 149.839844 89.414062 " fill-opacity="1" fill-rule="nonzero"/></g></g><g clip-path="url(#277ece50e7)"><g clip-path="url(#73b40cfd89)"><path fill="#f2f7f5" d="M 26.886719 101.753906 L 28.320312 106.125 L 32.914062 106.140625 L 29.203125 108.859375 L 30.609375 113.234375 L 26.886719 110.542969 L 23.15625 113.234375 L 24.566406 108.859375 L 20.851562 106.140625 L 25.449219 106.125 L 26.886719 101.753906 " fill-opacity="1" fill-rule="nonzero"/></g></g><g clip-path="url(#f33c8e05e6)"><g clip-path="url(#7709f4fced)"><path fill="#f2f7f5" d="M 54.210938 101.753906 L 55.640625 106.125 L 60.238281 106.140625 L 56.53125 108.859375 L 57.933594 113.234375 L 54.210938 110.542969 L 50.480469 113.234375 L 51.886719 108.859375 L 48.175781 106.140625 L 52.773438 106.125 L 54.210938 101.753906 " fill-opacity="1" fill-rule="nonzero"/></g></g><g clip-path="url(#38bcd9498a)"><g clip-path="url(#647f890017)"><path fill="#f2f7f5" d="M 81.53125 101.753906 L 82.964844 106.125 L 87.566406 106.140625 L 83.851562 108.859375 L 85.261719 113.234375 L 81.53125 110.542969 L 77.804688 113.234375 L 79.210938 108.859375 L 75.5 106.140625 L 80.101562 106.125 L 81.53125 101.753906 " fill-opacity="1" fill-rule="nonzero"/></g></g><g clip-path="url(#4829622a8d)"><g clip-path="url(#d184aa50e0)"><path fill="#f2f7f5" d="M 108.855469 101.753906 L 110.289062 106.125 L 114.886719 106.140625 L 111.175781 108.859375 L 112.585938 113.234375 L 108.855469 110.542969 L 105.125 113.234375 L 106.535156 108.859375 L 102.824219 106.140625 L 107.421875 106.125 L 108.855469 101.753906 " fill-opacity="1" fill-rule="nonzero"/></g></g><g clip-path="url(#8fb070e1a0)"><g clip-path="url(#e0f69dc849)"><path fill="#f2f7f5" d="M 136.179688 101.753906 L 137.613281 106.125 L 142.210938 106.140625 L 138.5 108.859375 L 139.90625 113.234375 L 136.179688 110.542969 L 132.449219 113.234375 L 133.859375 108.859375 L 130.144531 106.140625 L 134.746094 106.125 L 136.179688 101.753906 " fill-opacity="1" fill-rule="nonzero"/></g></g><g clip-path="url(#bb39beaf6c)"><g clip-path="url(#690cbf18ab)"><path fill="#f2f7f5" d="M 13.226562 113.925781 L 14.65625 118.300781 L 19.253906 118.308594 L 15.546875 121.027344 L 16.949219 125.40625 L 13.226562 122.710938 L 9.496094 125.40625 L 10.90625 121.027344 L 7.191406 118.308594 L 11.789062 118.300781 L 13.226562 113.925781 " fill-opacity="1" fill-rule="nonzero"/></g></g><g clip-path="url(#483483e10d)"><g clip-path="url(#a2be3e31d9)"><path fill="#f2f7f5" d="M 40.546875 113.925781 L 41.980469 118.300781 L 46.578125 118.308594 L 42.863281 121.027344 L 44.273438 125.40625 L 40.546875 122.710938 L 36.820312 125.40625 L 38.226562 121.027344 L 34.515625 118.308594 L 39.109375 118.300781 L 40.546875 113.925781 " fill-opacity="1" fill-rule="nonzero"/></g></g><g clip-path="url(#5a1e2504c1)"><g clip-path="url(#7ffc9e32ad)"><path fill="#f2f7f5" d="M 67.871094 113.925781 L 69.304688 118.300781 L 73.898438 118.308594 L 70.191406 121.027344 L 71.59375 125.40625 L 67.871094 122.710938 L 64.140625 125.40625 L 65.550781 121.027344 L 61.835938 118.308594 L 66.433594 118.300781 L 67.871094 113.925781 " fill-opacity="1" fill-rule="nonzero"/></g></g><g clip-path="url(#3086f101c4)"><g clip-path="url(#0e350685c4)"><path fill="#f2f7f5" d="M 95.195312 113.925781 L 96.625 118.300781 L 101.226562 118.308594 L 97.511719 121.027344 L 98.921875 125.40625 L 95.195312 122.710938 L 91.464844 125.40625 L 92.875 121.027344 L 89.160156 118.308594 L 93.761719 118.300781 L 95.195312 113.925781 " fill-opacity="1" fill-rule="nonzero"/></g></g><g clip-path="url(#2f09eb661b)"><g clip-path="url(#254679e286)"><path fill="#f2f7f5" d="M 122.515625 113.925781 L 123.949219 118.300781 L 128.550781 118.308594 L 124.835938 121.027344 L 126.246094 125.40625 L 122.515625 122.710938 L 118.789062 125.40625 L 120.195312 121.027344 L 116.484375 118.308594 L 121.078125 118.300781 L 122.515625 113.925781 " fill-opacity="1" fill-rule="nonzero"/></g></g><g clip-path="url(#e9a2119a2d)"><g clip-path="url(#a60483eab1)"><path fill="#f2f7f5" d="M 149.839844 113.925781 L 151.273438 118.300781 L 155.871094 118.308594 L 152.160156 121.027344 L 153.570312 125.40625 L 149.839844 122.710938 L 146.113281 125.40625 L 147.519531 121.027344 L 143.808594 118.308594 L 148.40625 118.300781 L 149.839844 113.925781 " fill-opacity="1" fill-rule="nonzero"/></g></g><g clip-path="url(#2a6599d723)"><g clip-path="url(#cdbea36abd)"><path fill="#f2f7f5" d="M 26.886719 126.265625 L 28.320312 130.636719 L 32.914062 130.652344 L 29.203125 133.363281 L 30.609375 137.75 L 26.886719 135.054688 L 23.15625 137.75 L 24.566406 133.363281 L 20.851562 130.652344 L 25.449219 130.636719 L 26.886719 126.265625 " fill-opacity="1" fill-rule="nonzero"/></g></g><g clip-path="url(#99a369d962)"><g clip-path="url(#8028fc3685)"><path fill="#f2f7f5" d="M 54.210938 126.265625 L 55.640625 130.636719 L 60.238281 130.652344 L 56.53125 133.363281 L 57.933594 137.75 L 54.210938 135.054688 L 50.480469 137.75 L 51.886719 133.363281 L 48.175781 130.652344 L 52.773438 130.636719 L 54.210938 126.265625 " fill-opacity="1" fill-rule="nonzero"/></g></g><g clip-path="url(#fd1611e076)"><g clip-path="url(#dd70375ee4)"><path fill="#f2f7f5" d="M 81.53125 126.265625 L 82.964844 130.636719 L 87.566406 130.652344 L 83.851562 133.363281 L 85.261719 137.75 L 81.53125 135.054688 L 77.804688 137.75 L 79.210938 133.363281 L 75.5 130.652344 L 80.101562 130.636719 L 81.53125 126.265625 " fill-opacity="1" fill-rule="nonzero"/></g></g><g clip-path="url(#0899c4d321)"><g clip-path="url(#678a177a08)"><path fill="#f2f7f5" d="M 108.855469 126.265625 L 110.289062 130.636719 L 114.886719 130.652344 L 111.175781 133.363281 L 112.585938 137.75 L 108.855469 135.054688 L 105.125 137.75 L 106.535156 133.363281 L 102.824219 130.652344 L 107.421875 130.636719 L 108.855469 126.265625 " fill-opacity="1" fill-rule="nonzero"/></g></g><g clip-path="url(#6b0176bcd0)"><g clip-path="url(#9707e9213b)"><path fill="#f2f7f5" d="M 136.179688 126.265625 L 137.613281 130.636719 L 142.210938 130.652344 L 138.5 133.363281 L 139.90625 137.75 L 136.179688 135.054688 L 132.449219 137.75 L 133.859375 133.363281 L 130.144531 130.652344 L 134.746094 130.636719 L 136.179688 126.265625 " fill-opacity="1" fill-rule="nonzero"/></g></g><g clip-path="url(#aa82fe0232)"><g clip-path="url(#ce58314331)"><path fill="#f2f7f5" d="M 13.226562 137.269531 L 14.65625 141.640625 L 19.253906 141.65625 L 15.546875 144.371094 L 16.949219 148.75 L 13.226562 146.058594 L 9.496094 148.75 L 10.90625 144.371094 L 7.191406 141.65625 L 11.789062 141.640625 L 13.226562 137.269531 " fill-opacity="1" fill-rule="nonzero"/></g></g><g clip-path="url(#54b49d8f5e)"><g clip-path="url(#f90b29d325)"><path fill="#f2f7f5" d="M 40.546875 137.269531 L 41.980469 141.640625 L 46.578125 141.65625 L 42.863281 144.371094 L 44.273438 148.75 L 40.546875 146.058594 L 36.820312 148.75 L 38.226562 144.371094 L 34.515625 141.65625 L 39.109375 141.640625 L 40.546875 137.269531 " fill-opacity="1" fill-rule="nonzero"/></g></g><g clip-path="url(#d9748b27e6)"><g clip-path="url(#d822c102c8)"><path fill="#f2f7f5" d="M 67.871094 137.269531 L 69.304688 141.640625 L 73.898438 141.65625 L 70.191406 144.371094 L 71.59375 148.75 L 67.871094 146.058594 L 64.140625 148.75 L 65.550781 144.371094 L 61.835938 141.65625 L 66.433594 141.640625 L 67.871094 137.269531 " fill-opacity="1" fill-rule="nonzero"/></g></g><g clip-path="url(#9d862af995)"><g clip-path="url(#5450b8c7cf)"><path fill="#f2f7f5" d="M 95.195312 137.269531 L 96.625 141.640625 L 101.226562 141.65625 L 97.511719 144.371094 L 98.921875 148.75 L 95.195312 146.058594 L 91.464844 148.75 L 92.875 144.371094 L 89.160156 141.65625 L 93.761719 141.640625 L 95.195312 137.269531 " fill-opacity="1" fill-rule="nonzero"/></g></g><g clip-path="url(#e558d736ac)"><g clip-path="url(#40fce5dcda)"><path fill="#f2f7f5" d="M 122.515625 137.269531 L 123.949219 141.640625 L 128.550781 141.65625 L 124.835938 144.371094 L 126.246094 148.75 L 122.515625 146.058594 L 118.789062 148.75 L 120.195312 144.371094 L 116.484375 141.65625 L 121.078125 141.640625 L 122.515625 137.269531 " fill-opacity="1" fill-rule="nonzero"/></g></g><g clip-path="url(#ec74499714)"><g clip-path="url(#983b72f48c)"><path fill="#f2f7f5" d="M 149.839844 137.269531 L 151.273438 141.640625 L 155.871094 141.65625 L 152.160156 144.371094 L 153.570312 148.75 L 149.839844 146.058594 L 146.113281 148.75 L 147.519531 144.371094 L 143.808594 141.65625 L 148.40625 141.640625 L 149.839844 137.269531 " fill-opacity="1" fill-rule="nonzero"/></g></g><g clip-path="url(#bb5e7a58b8)"><g clip-path="url(#7c3e965f98)"><path fill="#f2f7f5" d="M 26.886719 149.613281 L 28.320312 153.980469 L 32.914062 153.996094 L 29.203125 156.710938 L 30.609375 161.089844 L 26.886719 158.398438 L 23.15625 161.089844 L 24.566406 156.710938 L 20.851562 153.996094 L 25.449219 153.980469 L 26.886719 149.613281 " fill-opacity="1" fill-rule="nonzero"/></g></g><g clip-path="url(#0f57376cac)"><g clip-path="url(#7e015bb665)"><path fill="#f2f7f5" d="M 54.210938 149.613281 L 55.640625 153.980469 L 60.238281 153.996094 L 56.53125 156.710938 L 57.933594 161.089844 L 54.210938 158.398438 L 50.480469 161.089844 L 51.886719 156.710938 L 48.175781 153.996094 L 52.773438 153.980469 L 54.210938 149.613281 " fill-opacity="1" fill-rule="nonzero"/></g></g><g clip-path="url(#8cf098ca88)"><g clip-path="url(#a9fcfc2288)"><path fill="#f2f7f5" d="M 81.53125 149.613281 L 82.964844 153.980469 L 87.566406 153.996094 L 83.851562 156.710938 L 85.261719 161.089844 L 81.53125 158.398438 L 77.804688 161.089844 L 79.210938 156.710938 L 75.5 153.996094 L 80.101562 153.980469 L 81.53125 149.613281 " fill-opacity="1" fill-rule="nonzero"/></g></g><g clip-path="url(#531f867332)"><g clip-path="url(#b13e547c38)"><path fill="#f2f7f5" d="M 108.855469 149.613281 L 110.289062 153.980469 L 114.886719 153.996094 L 111.175781 156.710938 L 112.585938 161.089844 L 108.855469 158.398438 L 105.125 161.089844 L 106.535156 156.710938 L 102.824219 153.996094 L 107.421875 153.980469 L 108.855469 149.613281 " fill-opacity="1" fill-rule="nonzero"/></g></g><g clip-path="url(#b55e74db1d)"><g clip-path="url(#45922fab2e)"><path fill="#f2f7f5" d="M 136.179688 149.613281 L 137.613281 153.980469 L 142.210938 153.996094 L 138.5 156.710938 L 139.90625 161.089844 L 136.179688 158.398438 L 132.449219 161.089844 L 133.859375 156.710938 L 130.144531 153.996094 L 134.746094 153.980469 L 136.179688 149.613281 " fill-opacity="1" fill-rule="nonzero"/></g></g><g clip-path="url(#18567ef4b5)"><g clip-path="url(#3f64af7051)"><path fill="#f2f7f5" d="M 13.226562 160.613281 L 14.65625 164.988281 L 19.253906 165.003906 L 15.546875 167.714844 L 16.949219 172.097656 L 13.226562 169.402344 L 9.496094 172.097656 L 10.90625 167.714844 L 7.191406 165.003906 L 11.789062 164.988281 L 13.226562 160.613281 " fill-opacity="1" fill-rule="nonzero"/></g></g><g clip-path="url(#fc377c7910)"><g clip-path="url(#f970225a0d)"><path fill="#f2f7f5" d="M 40.546875 160.613281 L 41.980469 164.988281 L 46.578125 165.003906 L 42.863281 167.714844 L 44.273438 172.097656 L 40.546875 169.402344 L 36.820312 172.097656 L 38.226562 167.714844 L 34.515625 165.003906 L 39.109375 164.988281 L 40.546875 160.613281 " fill-opacity="1" fill-rule="nonzero"/></g></g><g clip-path="url(#8d2aa69894)"><g clip-path="url(#9a39cd5485)"><path fill="#f2f7f5" d="M 67.871094 160.613281 L 69.304688 164.988281 L 73.898438 165.003906 L 70.191406 167.714844 L 71.59375 172.097656 L 67.871094 169.402344 L 64.140625 172.097656 L 65.550781 167.714844 L 61.835938 165.003906 L 66.433594 164.988281 L 67.871094 160.613281 " fill-opacity="1" fill-rule="nonzero"/></g></g><g clip-path="url(#13014f0755)"><g clip-path="url(#6c3b74c631)"><path fill="#f2f7f5" d="M 95.195312 160.613281 L 96.625 164.988281 L 101.226562 165.003906 L 97.511719 167.714844 L 98.921875 172.097656 L 95.195312 169.402344 L 91.464844 172.097656 L 92.875 167.714844 L 89.160156 165.003906 L 93.761719 164.988281 L 95.195312 160.613281 " fill-opacity="1" fill-rule="nonzero"/></g></g><g clip-path="url(#44f1fa0cff)"><g clip-path="url(#c7327c62d4)"><path fill="#f2f7f5" d="M 122.515625 160.613281 L 123.949219 164.988281 L 128.550781 165.003906 L 124.835938 167.714844 L 126.246094 172.097656 L 122.515625 169.402344 L 118.789062 172.097656 L 120.195312 167.714844 L 116.484375 165.003906 L 121.078125 164.988281 L 122.515625 160.613281 " fill-opacity="1" fill-rule="nonzero"/></g></g><g clip-path="url(#ba43c42f23)"><g clip-path="url(#16fa8b71e7)"><path fill="#f2f7f5" d="M 149.839844 160.613281 L 151.273438 164.988281 L 155.871094 165.003906 L 152.160156 167.714844 L 153.570312 172.097656 L 149.839844 169.402344 L 146.113281 172.097656 L 147.519531 167.714844 L 143.808594 165.003906 L 148.40625 164.988281 L 149.839844 160.613281 " fill-opacity="1" fill-rule="nonzero"/></g></g><g clip-path="url(#8ac700fafb)"><g clip-path="url(#391e85de35)"><path fill="#f2f7f5" d="M 26.886719 172.832031 L 28.320312 177.207031 L 32.914062 177.222656 L 29.203125 179.933594 L 30.609375 184.316406 L 26.886719 181.621094 L 23.15625 184.316406 L 24.566406 179.933594 L 20.851562 177.222656 L 25.449219 177.207031 L 26.886719 172.832031 " fill-opacity="1" fill-rule="nonzero"/></g></g><g clip-path="url(#bdeddd4968)"><g clip-path="url(#9a4fedb7ec)"><path fill="#f2f7f5" d="M 54.210938 172.832031 L 55.640625 177.207031 L 60.238281 177.222656 L 56.53125 179.933594 L 57.933594 184.316406 L 54.210938 181.621094 L 50.480469 184.316406 L 51.886719 179.933594 L 48.175781 177.222656 L 52.773438 177.207031 L 54.210938 172.832031 " fill-opacity="1" fill-rule="nonzero"/></g></g><g clip-path="url(#0489065f3a)"><g clip-path="url(#24c138a055)"><path fill="#f2f7f5" d="M 81.53125 172.832031 L 82.964844 177.207031 L 87.566406 177.222656 L 83.851562 179.933594 L 85.261719 184.316406 L 81.53125 181.621094 L 77.804688 184.316406 L 79.210938 179.933594 L 75.5 177.222656 L 80.101562 177.207031 L 81.53125 172.832031 " fill-opacity="1" fill-rule="nonzero"/></g></g><g clip-path="url(#2d39361674)"><g clip-path="url(#0a576a091e)"><path fill="#f2f7f5" d="M 108.855469 172.832031 L 110.289062 177.207031 L 114.886719 177.222656 L 111.175781 179.933594 L 112.585938 184.316406 L 108.855469 181.621094 L 105.125 184.316406 L 106.535156 179.933594 L 102.824219 177.222656 L 107.421875 177.207031 L 108.855469 172.832031 " fill-opacity="1" fill-rule="nonzero"/></g></g><g clip-path="url(#ba9eb46ffd)"><g clip-path="url(#f51ddc19c7)"><path fill="#f2f7f5" d="M 136.179688 172.832031 L 137.613281 177.207031 L 142.210938 177.222656 L 138.5 179.933594 L 139.90625 184.316406 L 136.179688 181.621094 L 132.449219 184.316406 L 133.859375 179.933594 L 130.144531 177.222656 L 134.746094 177.207031 L 136.179688 172.832031 " fill-opacity="1" fill-rule="nonzero"/></g></g><g clip-path="url(#27c21fe002)"><g clip-path="url(#066dee0178)"><path fill="#f2f7f5" d="M 13.226562 183.835938 L 14.65625 188.210938 L 19.253906 188.222656 L 15.546875 190.941406 L 16.949219 195.320312 L 13.226562 192.628906 L 9.496094 195.320312 L 10.90625 190.941406 L 7.191406 188.222656 L 11.789062 188.210938 L 13.226562 183.835938 " fill-opacity="1" fill-rule="nonzero"/></g></g><g clip-path="url(#4d78c20165)"><g clip-path="url(#72e523c87b)"><path fill="#f2f7f5" d="M 40.546875 183.835938 L 41.980469 188.210938 L 46.578125 188.222656 L 42.863281 190.941406 L 44.273438 195.320312 L 40.546875 192.628906 L 36.820312 195.320312 L 38.226562 190.941406 L 34.515625 188.222656 L 39.109375 188.210938 L 40.546875 183.835938 " fill-opacity="1" fill-rule="nonzero"/></g></g><g clip-path="url(#8bfd6b480a)"><g clip-path="url(#9a30e08ad8)"><path fill="#f2f7f5" d="M 67.871094 183.835938 L 69.304688 188.210938 L 73.898438 188.222656 L 70.191406 190.941406 L 71.59375 195.320312 L 67.871094 192.628906 L 64.140625 195.320312 L 65.550781 190.941406 L 61.835938 188.222656 L 66.433594 188.210938 L 67.871094 183.835938 " fill-opacity="1" fill-rule="nonzero"/></g></g><g clip-path="url(#68844ca81f)"><g clip-path="url(#1e0ec13f74)"><path fill="#f2f7f5" d="M 95.195312 183.835938 L 96.625 188.210938 L 101.226562 188.222656 L 97.511719 190.941406 L 98.921875 195.320312 L 95.195312 192.628906 L 91.464844 195.320312 L 92.875 190.941406 L 89.160156 188.222656 L 93.761719 188.210938 L 95.195312 183.835938 " fill-opacity="1" fill-rule="nonzero"/></g></g><g clip-path="url(#83fc2cd5e8)"><g clip-path="url(#1a847ff3d3)"><path fill="#f2f7f5" d="M 122.515625 183.835938 L 123.949219 188.210938 L 128.550781 188.222656 L 124.835938 190.941406 L 126.246094 195.320312 L 122.515625 192.628906 L 118.789062 195.320312 L 120.195312 190.941406 L 116.484375 188.222656 L 121.078125 188.210938 L 122.515625 183.835938 " fill-opacity="1" fill-rule="nonzero"/></g></g><g clip-path="url(#92d44a5089)"><g clip-path="url(#723a2fe740)"><path fill="#f2f7f5" d="M 149.839844 183.835938 L 151.273438 188.210938 L 155.871094 188.222656 L 152.160156 190.941406 L 153.570312 195.320312 L 149.839844 192.628906 L 146.113281 195.320312 L 147.519531 190.941406 L 143.808594 188.222656 L 148.40625 188.210938 L 149.839844 183.835938 " fill-opacity="1" fill-rule="nonzero"/></g></g></svg>